<?xml version="1.0" encoding="UTF-8"?>
<svg id="_图层_2" data-name="图层 2" xmlns="http://www.w3.org/2000/svg" viewBox="0 0 546.17 186.35">
  <defs>
    <style>
      .cls-1 {
        fill: #fff;
      }
    </style>
  </defs>
  <g id="_图层_1-2" data-name="图层 1">
    <g>
      <g>
        <path class="cls-1" d="M157.07,39.67l-7.76-4.54L101.15,7.47l-8.49-4.98c-2.93-1.76-6.15-2.49-9.37-2.49s-6.44.73-9.37,2.49l-7.61,4.39-47.87,27.52-1.17.73-7.76,4.54C3.66,43.04,0,49.19,0,55.92v74.36c0,6.73,3.66,12.88,9.52,16.25l7.76,4.54,1.17.73,47.87,27.52,7.61,4.39c2.93,1.76,6.15,2.63,9.37,2.63s6.44-.88,9.37-2.63l8.49-4.98,48.16-27.67,7.76-4.54c5.85-3.37,9.37-9.52,9.37-16.25V55.92c0-6.73-3.51-12.88-9.37-16.25ZM77.15,87.98S20.93,55.48,20.79,55.48c-2.93-2.2-2.63-6.59.59-8.49L78.9,13.76c2.63-1.46,6-1.46,8.78,0l57.24,33.38c2.93,1.61,2.93,5.86,0,7.61l-55.63,33.23c-3.66,2.2-8.34,2.2-12.15,0ZM106.57,144.34l-6.44,3.66c-.44.15-.59.59-.59,1.02v18.59c0,.44-.29.88-.59,1.17l-12.15,6.73c-.88.59-1.76,0-1.76-1.02v-57.68c0-.44.15-.73.59-1.02l20.49-11.56c13.32-7.61,24.3-9.08,24.3,5.85s-11.13,27.08-23.86,34.25ZM149.9,139.36c0,.44-.29.88-.73,1.17l-11.86,6.73c-.88.44-1.9-.15-1.9-1.02v-27.52c0-.44.29-.73.73-1.02l11.86-6.73c.88-.44,1.9.15,1.9,1.02v27.37ZM142.73,107.59c-4.83,2.78-8.34,1.61-8.34-2.78s3.51-9.37,8.34-12.15c4.83-2.63,8.2-1.46,8.2,2.93s-3.37,9.22-8.2,12Z"/>
        <path class="cls-1" d="M116.38,118.13c0,5.85-3.51,11.12-10.54,15.08l-4.54,2.63c-.73.44-1.76-.15-1.76-1.02v-14.78c0-.44.15-.73.59-1.02l5.27-2.93c7.03-3.95,10.98-4.1,10.98,2.05Z"/>
      </g>
      <g>
        <path class="cls-1" d="M210.06,61.04h-20.35v71.73h9.08v-28.4h11.86c15.66,0,26.35-7.03,26.35-22.25s-10.69-21.08-26.93-21.08ZM209.48,97.05h-10.69v-28.69h10.25c12.59,0,19.03,3.37,19.03,13.76s-6,14.93-18.59,14.93Z"/>
        <rect class="cls-1" x="248.71" y="79.63" width="8.93" height="53.14"/>
        <path class="cls-1" d="M259.4,62.95c0,3.37-2.63,5.71-6.15,5.71s-6.15-2.34-6.15-5.71c0-3.66,2.64-5.71,6.15-5.71s6.15,2.05,6.15,5.71Z"/>
        <path class="cls-1" d="M323.51,111.4c0,12.15-10.25,22.84-27.81,22.84-9.51,0-19.62-3.51-27.23-10.54l9.95-12c5.12,4.39,11.86,7.47,17.71,7.47,6.44,0,9.51-2.49,9.51-6.44s-4.1-5.56-10.39-8.2l-9.22-3.95c-7.61-2.93-14.79-9.37-14.79-19.91,0-12.3,10.98-21.96,26.35-21.96,8.49,0,17.42,3.22,23.71,9.51l-8.64,10.98c-4.83-3.66-9.37-5.56-15.08-5.56-5.27,0-8.64,2.2-8.64,6,0,4.1,4.54,5.56,11.12,8.2l9.08,3.66c8.93,3.51,14.35,9.66,14.35,19.91Z"/>
        <path class="cls-1" d="M382.36,77.15v55.63h-14.2l-1.32-7.61h-.44c-4.54,5.56-9.81,9.08-17.42,9.08-12.15,0-17.27-8.78-17.27-22.69v-34.4h17.42v32.35c0,7.61,2.05,9.81,6.44,9.81,3.95,0,6.44-1.61,9.37-5.71v-36.45h17.42Z"/>
        <path class="cls-1" d="M424.37,121.79h-8.78c-6,0-8.2-1.17-8.2-3.66,0-1.9.44-2.78,1.76-3.95,2.34.73,4.68,1.02,6.59,1.02,12.3,0,22.1-5.71,22.1-18.74,0-2.63-.59-5.12-1.46-6.73h8.49v-12.59h-20.35c-2.63-.88-5.56-1.32-8.78-1.32-12.15,0-23.42,6.59-23.42,20.2,0,6.44,3.66,11.71,7.61,14.35v.44c-3.66,2.49-6.15,6.44-6.15,10.39,0,4.68,2.2,7.61,5.12,9.52v.59c-5.27,2.63-8.05,6.29-8.05,10.83,0,10.1,10.69,14.05,23.42,14.05,19.47,0,31.47-8.34,31.47-20.05,0-10.1-7.61-14.35-21.37-14.35ZM415.74,87.39c4.1,0,7.03,2.93,7.03,8.64s-2.93,8.64-7.03,8.64-7.17-2.93-7.17-8.64,3.07-8.64,7.17-8.64ZM417.06,145.36c-7.17,0-11.86-2.05-11.86-5.86,0-1.9.88-3.51,2.63-4.98,1.76.44,3.95.59,7.9.59h5.27c5.27,0,8.2.73,8.2,4.1s-4.98,6.15-12.15,6.15Z"/>
        <path class="cls-1" d="M473.85,75.83c-8.64,0-16.54,2.93-24.01,7.32l6.15,11.42c5.56-3.07,10.1-4.83,14.49-4.83,5.71,0,8.05,2.63,8.49,7.03-21.66,2.34-30.89,8.78-30.89,20.49,0,9.37,6.29,16.98,16.54,16.98,6.15,0,11.27-2.93,15.96-7.03h.29l1.32,5.56h14.2v-31.62c0-17.42-8.2-25.32-22.54-25.32ZM478.98,116.23c-2.49,2.78-4.83,4.39-8.49,4.39s-5.85-1.46-5.85-4.68c0-3.95,3.51-7.03,14.35-8.49v8.78Z"/>
        <path class="cls-1" d="M546.17,77l-2.93,14.93c-1.9-.44-3.66-.88-6-.88-4.1,0-9.22,2.63-12.15,9.95v31.77h-17.27v-55.63h14.2l1.17,9.66h.44c4.1-7.47,10.25-10.98,15.81-10.98,3.37,0,5.12.44,6.73,1.17Z"/>
      </g>
    </g>
  </g>
</svg>